<?xml version="1.0" encoding="UTF-8"?>
<svg id="Layer_1" xmlns="http://www.w3.org/2000/svg" version="1.1" viewBox="0 0 355.41 79.82">
  <defs>
    <style>
      .st0 {
        fill-rule: evenodd;
      }
      .st0, .st1 {
        fill: #fff;
      }
      .st2 {
        fill: none;
        stroke: #fff;
        stroke-miterlimit: 10;
        stroke-width: 2px;
      }
    </style>
  </defs>
  <g id="Trust_Office">
    <g>
      <path class="st1" d="M99.27,29.19h-1.32l.2-9.34h37.69l.2,9.34h-1.23c-.44-2.56-1.04-4.41-1.8-5.54-.76-1.14-1.59-1.83-2.46-2.09s-2.38-.39-4.5-.39h-6.24v27.41c0,3.04.07,5.03.22,5.99.14.95.53,1.66,1.16,2.12s1.81.69,3.55.69h1.89v1.32h-19.36v-1.32h2c1.66,0,2.81-.21,3.45-.63.64-.42,1.05-1.07,1.23-1.96s.27-2.95.27-6.2v-27.41h-5.76c-2.5,0-4.18.12-5.04.36s-1.67.96-2.42,2.16-1.33,3.04-1.73,5.5h0Z"/>
      <path class="st1" d="M140.45,40.27c.65-1.7,1.7-3.12,3.16-4.27s2.89-1.72,4.28-1.72c1.26,0,2.25.39,2.98,1.17s1.09,1.59,1.09,2.41c0,.55-.19,1.03-.56,1.43s-.83.6-1.36.6c-.95,0-1.68-.71-2.18-2.12-.34-.95-.86-1.43-1.55-1.43-.82,0-1.8.56-2.95,1.68s-1.88,2.28-2.21,3.48c-.32,1.2-.49,2.85-.49,4.95v4.18c0,2.5.03,4.08.1,4.73s.34,1.15.82,1.49,1.33.52,2.55.52h.8v1.32h-12.46v-1.32h.6c1.15,0,1.96-.16,2.45-.47s.78-.76.87-1.33c.09-.57.14-2.21.14-4.93v-6.62c0-2.52-.03-4.1-.1-4.74-.07-.64-.34-1.14-.82-1.49-.48-.35-1.33-.53-2.55-.53h-.6v-1.29c1.79-.21,4.14-.77,7.05-1.69.55,1.51.86,3.5.92,5.99h.02Z"/>
      <path class="st1" d="M175.22,35.23v15.38c0,2.56.04,4.16.11,4.81.08.65.36,1.14.84,1.46.49.32,1.36.49,2.62.49v1.32c-2.9.04-5.02.34-6.36.92h-.34c-.61-1.05-.94-2.86-.97-5.44-1.16,1.81-2.5,3.18-3.99,4.1-1.5.92-3.15,1.37-4.97,1.37-1.57,0-2.95-.36-4.15-1.07s-2.03-1.59-2.48-2.62-.67-2.59-.67-4.67v-7.99c0-2.71-.05-4.37-.14-4.97-.1-.6-.4-1.05-.9-1.33-.51-.29-1.44-.43-2.79-.43v-1.32h7.96v16.27c0,1.6.09,2.77.29,3.49.19.73.68,1.36,1.46,1.9.78.54,1.69.82,2.72.82,1.47,0,2.87-.48,4.21-1.45s2.25-1.99,2.74-3.06c.49-1.08.73-2.62.73-4.62v-5.3c0-2.56-.03-4.11-.09-4.67-.06-.55-.3-1.04-.73-1.45s-1.32-.62-2.68-.62h-.6v-1.32h8.19-.01Z"/>
      <path class="st1" d="M180.32,59.43v-7.7h1.12c1.3,4.45,3.62,6.67,6.96,6.67,1.45,0,2.53-.44,3.25-1.32s1.07-1.84,1.07-2.89c0-1.22-.38-2.22-1.15-3.01-.78-.78-2.3-1.73-4.55-2.84-2.37-1.16-4.07-2.31-5.1-3.44-1.03-1.11-1.55-2.47-1.55-4.1s.55-3.02,1.66-4.43c1.11-1.4,2.66-2.11,4.67-2.11s3.73.83,5.07,2.49c.29-.29.66-.98,1.12-2.09h1.06v7.25h-1.06c-.38-1.74-1.12-3.23-2.22-4.48s-2.39-1.88-3.88-1.88c-1.15,0-2.07.35-2.78,1.06s-1.06,1.53-1.06,2.46c0,1.03.39,1.92,1.17,2.66.76.76,2.22,1.63,4.38,2.61,3.25,1.47,5.23,2.9,5.96,4.3.73,1.41,1.09,2.77,1.09,4.07,0,2.04-.67,3.7-2.02,4.98s-3.04,1.92-5.08,1.92c-2.16,0-4.08-.89-5.76-2.66-.52.57-.94,1.39-1.26,2.46h-1.12v.02Z"/>
      <path class="st1" d="M211.26,36.55h-7.07v14.18c0,2.18.09,3.64.29,4.4.19.75.6,1.36,1.22,1.82s1.28.69,1.99.69c1.37,0,2.57-.78,3.58-2.35l.92.54c-.59,1.26-1.47,2.21-2.62,2.85-1.16.64-2.32.96-3.51.96-1.37,0-2.58-.41-3.62-1.22s-1.69-1.76-1.95-2.85-.39-3-.39-5.73v-13.29h-3.41v-1.32c1.57-.04,2.97-.7,4.21-1.98s2.03-3.07,2.38-5.38h.92v7.36h7.07v1.32h-.01Z"/>
      <path class="st1" d="M225.24,39.01c0-5.99,2-10.81,6.01-14.43,4.01-3.63,9.01-5.44,15.01-5.44s11.11,1.79,15.16,5.38c4.06,3.59,6.09,8.49,6.09,14.69s-1.94,10.88-5.83,14.61c-3.89,3.72-9,5.58-15.34,5.58s-11.23-1.86-15.18-5.58-5.93-8.66-5.93-14.81h0ZM231.79,39.21c0,6.24,1.25,10.93,3.74,14.06s6.23,4.7,11.21,4.7c4.37,0,7.83-1.57,10.37-4.7s3.81-7.8,3.81-14-1.25-10.66-3.75-13.88c-2.5-3.22-6.13-4.83-10.88-4.83s-8.26,1.57-10.75,4.71c-2.49,3.14-3.74,7.79-3.74,13.93h0Z"/>
      <path class="st1" d="M282.4,35.23v1.32h-4.9v14.09c0,2.5.03,4.08.1,4.73s.34,1.15.82,1.49,1.33.52,2.55.52h1.23v1.32h-12.69v-1.32c1.32,0,2.23-.13,2.74-.4.51-.27.82-.67.94-1.22s.19-2.25.19-5.11v-14.09h-4.38v-1.32h4.38v-2.12c0-2.37.09-4.2.29-5.5.19-1.3.73-2.64,1.62-4.02.89-1.38,2-2.45,3.35-3.19s2.94-1.12,4.8-1.12c2.25,0,4.06.47,5.41,1.4,1.36.94,2.03,1.89,2.03,2.86,0,.55-.19,1.01-.57,1.37s-.83.54-1.35.54c-1.01,0-1.94-.78-2.78-2.35-.94-1.72-2.15-2.58-3.64-2.58-1.2,0-2.26.44-3.16,1.3-.91.87-1.45,1.95-1.62,3.25-.17,1.3-.26,4.09-.26,8.36v1.78h4.9Z"/>
      <path class="st1" d="M282,36.55v-1.32h4.61v-2.23c0-3.05.4-5.54,1.2-7.45.8-1.91,2.19-3.43,4.17-4.55,1.98-1.13,4.21-1.69,6.72-1.69s4.43.42,5.9,1.26,2.21,1.78,2.21,2.81c0,.52-.17.95-.52,1.32s-.76.54-1.26.54c-.95,0-1.89-.74-2.81-2.21-1.05-1.64-2.52-2.46-4.41-2.46-1.74,0-3.23.54-4.47,1.63-1.24,1.09-1.99,2.52-2.25,4.28-.26,1.77-.39,4.03-.39,6.8v1.95h7.27c3.93,0,6.77-.31,8.51-.94h.69v16.35c0,2.71.05,4.36.14,4.95.09.59.4,1.04.9,1.33.51.3,1.44.44,2.79.44v1.32h-11.97v-1.32c1.37,0,2.32-.13,2.84-.39s.84-.66.97-1.2.2-2.26.2-5.14v-8.53c0-2.04-.08-3.36-.23-3.94-.15-.58-.48-1-.99-1.25-.51-.25-1.55-.37-3.14-.37h-7.99v14.09c0,2.75.05,4.42.16,5s.41,1.02.92,1.3c.51.29,1.46.43,2.85.43v1.32h-11.91v-1.32c1.32,0,2.23-.13,2.74-.4.51-.27.83-.67.96-1.22.13-.54.2-2.25.2-5.11v-14.09h-4.61Z"/>
      <path class="st1" d="M331.69,52.96h1.26c-1.3,4.45-4.54,6.67-9.74,6.67-3.34,0-6.15-1.14-8.43-3.41s-3.42-5.28-3.42-9.02,1.23-6.95,3.69-9.34,5.37-3.58,8.73-3.58c2.02,0,3.89.44,5.58,1.33s2.55,1.97,2.55,3.25c0,.48-.16.93-.47,1.35s-.77.63-1.36.63c-1.26,0-2.03-.74-2.32-2.21-.23-1.11-.58-1.88-1.06-2.32-.5-.44-1.46-.66-2.89-.66-2.56,0-4.48.89-5.77,2.66-1.29,1.78-1.93,4.45-1.93,8.02s.69,6.57,2.08,8.65c1.38,2.08,3.48,3.12,6.29,3.12,3.78,0,6.19-1.72,7.22-5.15h-.01Z"/>
      <path class="st1" d="M355.41,43.17h-16.35c-.08,1.13-.11,1.97-.11,2.52,0,4.12.64,7.22,1.93,9.29s3.21,3.11,5.77,3.11c3.47,0,5.94-1.56,7.39-4.67h1.37c-.61,1.95-1.82,3.47-3.64,4.57-1.81,1.1-3.79,1.65-5.93,1.65-1.99,0-3.86-.5-5.63-1.5-1.77-1-3.21-2.42-4.34-4.25s-1.69-4.06-1.69-6.67c0-3.7,1.09-6.78,3.27-9.24,2.18-2.45,4.9-3.68,8.16-3.68,3.07,0,5.45.94,7.13,2.81,1.68,1.87,2.57,3.9,2.66,6.07h.01ZM350.4,42.02c.06-.44.09-.83.09-1.17,0-1.68-.49-2.98-1.47-3.91s-2.19-1.39-3.62-1.39c-3.47,0-5.55,2.16-6.21,6.47h11.23-.02Z"/>
    </g>
  </g>
  <circle cx="39.91" cy="39.91" r="38.91" fill="none" stroke="#fff" stroke-width="2"/>
  <g id="Group_1">
    <g id="Shape_1">
      <polygon class="st0" points="47.7 45.72 38.15 56.02 33.24 50.81 30.17 53.93 38.1 62.15 50.77 48.67 47.7 45.72"/>
    </g>
    <g id="Shape_2">
      <path class="st0" d="M56.5,16.56h-10.7s-11.75-.6-11.92,11.4v20.94l4.34,4.34v-24.99s-.27-2.58,1.27-4.28c0,0,1.2,1.36,1.22,4.17v22.16l4.34-4.63v-17.7s.11-4.08-2.08-6.6c0,0,.62-.53,2.49-.52h10.18s2.59-.12,2.66,2.89v5.21l4.28,2.26v-8.91s-.62-5.27-6.08-5.73Z"/>
    </g>
    <g id="Shape_3">
      <path class="st0" d="M23.4,16.54s-6.15.38-6.42,6.38v8.39l4.46-2.37v-5.5s-.31-2.6,2.95-2.6h9.66s1.46-3.23,4.8-4.29h-15.45Z"/>
    </g>
    <g id="Rectangle_1">
      <rect class="st1" x="52.33" y="60.59" width="4.8" height="4.74"/>
    </g>
    <g id="Shape_4">
      <path class="st0" d="M44.58,58.1l-3.12,3.24c3.75,4.55,8.91,3.99,8.91,3.99v-4.73c-4.46.48-5.79-2.5-5.79-2.5h0Z"/>
    </g>
  </g>
</svg>