<?xml version="1.0" encoding="UTF-8"?>
<!-- TrustOffice Logo — Horizontal Lockup — NAVY (for light backgrounds) -->
<!-- Clean vector — no embedded raster images -->
<svg xmlns="http://www.w3.org/2000/svg" viewBox="0 0 3000 800" width="3000" height="800">
  <g fill="#010079">
    <!-- T -->
    <polygon points="200,180 480,180 480,260 380,260 380,520 300,520 300,260 200,260"/>
    <!-- R -->
    <path d="M520,180 L760,180 Q860,180 860,280 Q860,360 780,380 L860,520 L760,520 L690,390 L600,390 L600,520 L520,520 Z M600,260 L600,320 L740,320 Q760,320 760,290 Q760,260 740,260 Z"/>
    <!-- U -->
    <path d="M880,180 L960,180 L960,420 Q960,480 1020,480 Q1080,480 1080,420 L1080,180 L1160,180 L1160,430 Q1160,560 1020,560 Q880,560 880,430 Z"/>
    <!-- S -->
    <path d="M1240,180 L1400,180 Q1500,180 1500,260 Q1500,320 1440,340 Q1520,360 1520,440 Q1520,520 1420,520 L1240,520 L1240,440 L1400,440 Q1420,440 1420,420 Q1420,400 1400,400 L1320,400 L1320,320 L1400,320 Q1420,320 1420,300 Q1420,280 1400,280 L1240,280 Z"/>
    <!-- T -->
    <polygon points="1540,180 1820,180 1820,260 1720,260 1720,520 1640,520 1640,260 1540,260"/>
    <!-- O -->
    <path d="M1920,180 L2100,180 Q2200,180 2200,350 Q2200,520 2100,520 L1920,520 Q1820,520 1820,350 Q1820,180 1920,180 Z M1920,260 Q1900,260 1900,350 Q1900,440 1920,440 L2100,440 Q2120,440 2120,350 Q2120,260 2100,260 Z"/>
    <!-- F -->
    <polygon points="2240,180 2520,180 2520,260 2320,260 2320,320 2480,320 2480,400 2320,400 2320,520 2240,520"/>
    <!-- F -->
    <polygon points="2560,180 2840,180 2840,260 2640,260 2640,320 2800,320 2800,400 2640,400 2640,520 2560,520"/>
    <!-- I -->
    <polygon points="2880,180 2960,180 2960,520 2880,520"/>
    <!-- C -->
    <path d="M3200,180 L3380,180 Q3480,180 3480,260 L3400,260 Q3400,260 3380,260 L3200,260 Q3180,260 3180,350 Q3180,440 3200,440 L3380,440 Q3400,440 3400,440 L3480,440 Q3480,520 3380,520 L3200,520 Q3100,520 3100,350 Q3100,180 3200,180 Z"/>
    <!-- E -->
    <polygon points="3520,180 3800,180 3800,260 3600,260 3600,320 3760,320 3760,400 3600,400 3600,440 3800,440 3800,520 3520,520"/>
  </g>
  <rect x="3760" y="440" width="80" height="80" fill="#d5ad36"/>
</svg>