<?xml version="1.0" encoding="UTF-8"?>
<svg id="Group_2" xmlns="http://www.w3.org/2000/svg" xmlns:xlink="http://www.w3.org/1999/xlink" version="1.1" viewBox="0 0 3000 3000">
  <!-- Generator: Adobe Illustrator 30.1.0, SVG Export Plug-In . SVG Version: 2.1.1 Build 136)  -->
  <defs>
    <style>
      .st0 {
        fill: #010079;
        fill-rule: evenodd;
      }

      .st1 {
        fill: #d5ad36;
      }
    </style>
  </defs>
  <circle cx="1500" cy="1500" r="1080" fill="none" stroke="#010079" stroke-width="60"/>
    <g id="Circle_Emblem">
      <polygon class="st0" points="1726.07 1668.51 1448.98 1967.43 1306.24 1816.29 1217.23 1906.98 1447.3 2145.44 1815.07 1754.16 1726.07 1668.51"/>
    </g>
  <g id="Group_1">
    <g id="Shape_1">
      <polygon class="st0" points="1726.07 1668.51 1448.98 1967.43 1306.24 1816.29 1217.23 1906.98 1447.3 2145.44 1815.07 1754.16 1726.07 1668.51"/>
    </g>
    <g id="Shape_2">
      <path class="st0" d="M1981.33,822.13h-310.68s-341.15-17.37-345.94,330.83v607.92l125.95,125.95v-725.47s-7.73-75.02,36.95-124.27c0,0,34.76,39.6,35.27,120.91v643.18l125.95-134.35v-513.88s3.23-118.56-60.46-191.44c0,0,17.94-15.38,72.21-15.11h295.56s75.07-3.53,77.25,83.97v151.14l124.27,65.49v-258.62s-17.99-152.91-176.33-166.25Z"/>
    </g>
    <g id="Shape_3">
      <path class="st0" d="M1020.75,821.75s-178.51,11.07-186.41,185.11v243.5l129.31-68.85v-159.54s-8.88-75.57,85.65-75.57h280.45s42.38-93.83,139.38-124.65h-448.38Z"/>
    </g>
    <g id="Rectangle_1">
      <rect class="st1" x="1860.41" y="2100.1" width="139.38" height="137.7"/>
    </g>
    <g id="Shape_4">
      <path class="st0" d="M1635.38,2027.89l-90.68,94.04c108.97,132.03,258.62,115.78,258.62,115.78v-137.24c-129.41,13.98-167.93-72.58-167.93-72.58Z"/>
    </g>
  </g>
</svg>